<svg width="180" height="183" viewBox="0 0 180 183" fill="none" xmlns="http://www.w3.org/2000/svg">
<circle cx="90" cy="91" r="90" fill="#002A46" style="fill:#002A46;fill:color(display-p3 0.0000 0.1647 0.2745);fill-opacity:1;"/>
<path d="M38.285 86.735V77.28H102.61L99.665 86.735H38.285ZM38.285 108.435V98.98H96.72L93.775 108.435H38.285ZM93.93 39.15C103.333 39.15 111.187 41.2167 117.49 45.35C123.793 49.38 128.237 55.2183 130.82 62.865L117.335 69.22C115.888 63.64 113.202 59.4033 109.275 56.51C105.348 53.6167 100.492 52.17 94.705 52.17C85.9217 52.17 78.9983 55.6833 73.935 62.71C68.8717 69.6333 66.34 79.3467 66.34 91.85C66.34 104.147 68.665 113.86 73.315 120.99C78.0683 128.017 85.25 131.53 94.86 131.53C100.647 131.53 105.607 129.877 109.74 126.57C113.873 123.263 116.715 118.355 118.265 111.845L132.06 116.495C130.407 122.385 127.823 127.448 124.31 131.685C120.797 135.818 116.508 139.022 111.445 141.295C106.382 143.465 100.698 144.55 94.395 144.55C85.095 144.55 77.19 142.432 70.68 138.195C64.17 133.958 59.1583 127.913 55.645 120.06C52.1317 112.103 50.375 102.7 50.375 91.85C50.375 80.8967 52.1833 71.4933 55.8 63.64C59.4167 55.7867 64.48 49.7417 70.99 45.505C77.6033 41.2683 85.25 39.15 93.93 39.15Z" fill="white" style="fill:white;fill-opacity:1;"/>
</svg>